REM DIRINDEX 1\3,1\4,1\5,1\6,1\2\7,1\2\8,1\2\9,1\2\10,1\2\11
REM DIRNAME cjc021,folder01,folder02,folder03,folder04,folder05,folder06,folder07,folder08,folder09,folder10
TITLE ""
FILE "DISC5Track20.mp3" MP3
  TRACK 01 AUDIO
    TITLE "0:"
    INDEX 01 00:00:00
  TRACK 02 AUDIO
    TITLE "3:cjc021_5347"
    INDEX 01 00:00:21
  TRACK 03 AUDIO
    TITLE "0:"
    INDEX 01 00:01:52
  TRACK 04 AUDIO
    TITLE "4:cjc021_5348"
    INDEX 01 00:03:27
  TRACK 05 AUDIO
    TITLE "0:"
    INDEX 01 00:04:58
  TRACK 06 AUDIO
    TITLE "5:cjc021_5349"
    INDEX 01 00:05:20
  TRACK 07 AUDIO
    TITLE "0:"
    INDEX 01 00:08:44
  TRACK 08 AUDIO
    TITLE "3:cjc021_5350"
    INDEX 01 00:10:04
  TRACK 09 AUDIO
    TITLE "0:"
    INDEX 01 00:11:25
  TRACK 10 AUDIO
    TITLE "4:cjc021_5351"
    INDEX 01 00:13:02
  TRACK 11 AUDIO
    TITLE "0:"
    INDEX 01 00:14:23
  TRACK 12 AUDIO
    TITLE "5:cjc021_5352"
    INDEX 01 00:14:62
  TRACK 13 AUDIO
    TITLE "0:"
    INDEX 01 00:17:29
  TRACK 14 AUDIO
    TITLE "3:cjc021_5353"
    INDEX 01 00:18:66
  TRACK 15 AUDIO
    TITLE "0:"
    INDEX 01 00:19:73
  TRACK 16 AUDIO
    TITLE "4:cjc021_5354"
    INDEX 01 00:21:55
  TRACK 17 AUDIO
    TITLE "0:"
    INDEX 01 00:22:62
  TRACK 18 AUDIO
    TITLE "5:cjc021_5355"
    INDEX 01 00:23:26
  TRACK 19 AUDIO
    TITLE "0:"
    INDEX 01 00:25:62
  TRACK 20 AUDIO
    TITLE "3:cjc021_5356"
    INDEX 01 00:27:22
  TRACK 21 AUDIO
    TITLE "0:"
    INDEX 01 00:28:43
  TRACK 22 AUDIO
    TITLE "4:cjc021_5357"
    INDEX 01 00:30:20
  TRACK 23 AUDIO
    TITLE "0:"
    INDEX 01 00:31:41
  TRACK 24 AUDIO
    TITLE "5:cjc021_5358"
    INDEX 01 00:32:01
  TRACK 25 AUDIO
    TITLE "0:"
    INDEX 01 00:34:67
  TRACK 26 AUDIO
    TITLE "3:cjc021_5359"
    INDEX 01 00:36:29
  TRACK 27 AUDIO
    TITLE "0:"
    INDEX 01 00:37:34
  TRACK 28 AUDIO
    TITLE "4:cjc021_5360"
    INDEX 01 00:39:13
  TRACK 29 AUDIO
    TITLE "0:"
    INDEX 01 00:40:19
  TRACK 30 AUDIO
    TITLE "5:cjc021_5361"
    INDEX 01 00:40:56
  TRACK 31 AUDIO
    TITLE "0:"
    INDEX 01 00:43:19
  TRACK 32 AUDIO
    TITLE "3:cjc021_5362"
    INDEX 01 00:44:56
  TRACK 33 AUDIO
    TITLE "0:"
    INDEX 01 00:45:55
  TRACK 34 AUDIO
    TITLE "4:cjc021_5363"
    INDEX 01 00:47:32
  TRACK 35 AUDIO
    TITLE "0:"
    INDEX 01 00:48:34
  TRACK 36 AUDIO
    TITLE "5:cjc021_5364"
    INDEX 01 00:48:69
  TRACK 37 AUDIO
    TITLE "0:"
    INDEX 01 00:51:22
  TRACK 38 AUDIO
    TITLE "3:cjc021_5365"
    INDEX 01 00:52:59
  TRACK 39 AUDIO
    TITLE "0:"
    INDEX 01 00:53:64
  TRACK 40 AUDIO
    TITLE "4:cjc021_5366"
    INDEX 01 00:55:44
  TRACK 41 AUDIO
    TITLE "0:"
    INDEX 01 00:56:49
  TRACK 42 AUDIO
    TITLE "5:cjc021_5367"
    INDEX 01 00:57:13
  TRACK 43 AUDIO
    TITLE "0:"
    INDEX 01 01:00:08
  TRACK 44 AUDIO
    TITLE "3:cjc021_5368"
    INDEX 01 01:01:46
  TRACK 45 AUDIO
    TITLE "0:"
    INDEX 01 01:02:46
  TRACK 46 AUDIO
    TITLE "4:cjc021_5369"
    INDEX 01 01:04:23
  TRACK 47 AUDIO
    TITLE "0:"
    INDEX 01 01:05:26
  TRACK 48 AUDIO
    TITLE "5:cjc021_5370"
    INDEX 01 01:05:62
  TRACK 49 AUDIO
    TITLE "0:"
    INDEX 01 01:08:19
  TRACK 50 AUDIO
    TITLE "3:cjc021_5371"
    INDEX 01 01:09:54
  TRACK 51 AUDIO
    TITLE "0:"
    INDEX 01 01:10:55
  TRACK 52 AUDIO
    TITLE "4:cjc021_5372"
    INDEX 01 01:12:32
  TRACK 53 AUDIO
    TITLE "0:"
    INDEX 01 01:13:34
  TRACK 54 AUDIO
    TITLE "5:cjc021_5373"
    INDEX 01 01:13:71
  TRACK 55 AUDIO
    TITLE "0:"
    INDEX 01 01:16:65
  TRACK 56 AUDIO
    TITLE "3:cjc021_5374"
    INDEX 01 01:18:27
  TRACK 57 AUDIO
    TITLE "0:"
    INDEX 01 01:19:32
  TRACK 58 AUDIO
    TITLE "4:cjc021_5375"
    INDEX 01 01:21:10
  TRACK 59 AUDIO
    TITLE "0:"
    INDEX 01 01:22:13
  TRACK 60 AUDIO
    TITLE "5:cjc021_5376"
    INDEX 01 01:22:52
  TRACK 61 AUDIO
    TITLE "0:"
    INDEX 01 01:24:37
